<?xml version="1.0" encoding="UTF-8" standalone="no"?>
<!-- Created with Inkscape (http://www.inkscape.org/) -->

<svg
   width="244.36067mm"
   height="240.41026mm"
   viewBox="0 0 244.36067 240.41026"
   version="1.1"
   id="svg1"
   xml:space="preserve"
   xmlns="http://www.w3.org/2000/svg"
   xmlns:svg="http://www.w3.org/2000/svg"><defs
     id="defs1"><linearGradient
       id="swatch7"><stop
         style="stop-color:#a3a3a3;stop-opacity:1;"
         offset="0"
         id="stop7" /></linearGradient></defs><g
     id="layer1"
     transform="translate(-10.403443,-75.964455)"><path
       style="fill:#ca9b75;fill-opacity:1"
       d="m 126.07396,316.26076 c -6.22721,-0.25977 -16.4577,-1.88909 -23.74554,-3.78173 -21.218563,-5.51046 -41.693104,-17.35349 -56.555499,-32.71325 -6.498013,-6.71546 -10.425175,-11.44555 -14.582289,-17.5637 -10.361351,-15.24912 -17.053206,-32.48 -19.523387,-50.27083 -2.1246879,-15.30252 -1.054114,-32.12074 2.98949,-46.96354 2.707981,-9.94014 7.49898,-21.04639 13.068523,-30.29479 7.368946,-12.23636 18.885234,-25.00166 30.350788,-33.64252 7.040829,-5.306222 11.631533,-8.210355 18.500403,-11.703565 13.662194,-6.948002 27.842271,-11.102523 43.412091,-12.719004 3.87498,-0.402305 11.28441,-0.575548 16.27188,-0.380459 18.19399,0.711675 34.24807,4.790024 50.13854,12.737101 10.40978,5.206102 17.43691,9.950444 26.59062,17.952567 16.22018,14.17959 28.80093,32.88002 35.31575,52.49442 3.48913,10.50486 5.142,18.7272 5.98356,29.76562 0.34076,4.46976 0.18394,15.20237 -0.28802,19.71146 -0.74016,7.07142 -3.02146,17.60709 -5.29938,24.47396 -2.27447,6.85649 -6.46317,16.05538 -10.07334,22.12229 -8.16012,13.71312 -17.79028,24.65997 -30.66565,34.85845 -10.5692,8.37177 -22.64935,14.95365 -35.98378,19.60578 -6.33693,2.21083 -18.09586,4.92704 -24.6058,5.68372 -5.57131,0.64757 -14.51113,0.91117 -21.29896,0.62802 z"
       id="path6" /><path
       id="path1"
       style="fill:#63290a;fill-opacity:1"
       d="m 131.76091,291.37239 c -8.8e-4,-0.10914 -0.62596,-0.21213 -1.38907,-0.22887 -2.93117,-0.0643 -7.10326,-2.02952 -9.8524,-4.64088 -2.15058,-2.0428 -3.34636,-3.89625 -4.26914,-6.61715 -1.70364,-5.02334 -1.87742,-12.81462 -0.41288,-18.51053 1.40581,-5.4675 4.06196,-11.33817 7.46671,-16.50309 4.03398,-6.11944 6.87151,-9.39977 16.25941,-18.79672 7.59138,-7.59869 11.80515,-11.33836 16.33202,-14.49443 4.47717,-3.12141 9.78248,-5.46555 12.58427,-5.56031 0.68771,-0.0233 1.32213,-0.14 1.40984,-0.25942 0.23681,-0.32246 6.10072,-0.27335 8.83637,0.074 4.19861,0.53311 12.354,2.19574 11.98439,2.44325 -0.2159,0.14458 -0.0954,0.17246 0.32568,0.0753 0.36763,-0.0848 1.84916,0.10166 3.2923,0.41433 8.88029,1.92399 17.22221,6.87632 20.89908,12.40713 1.48263,2.23019 2.74831,5.36432 3.20899,7.94625 0.46608,2.61213 0.4683,9.07584 0.004,11.91411 -0.84356,5.15784 -2.84082,9.10236 -7.43526,14.68438 -7.18699,8.73185 -20.17487,18.18114 -34.79282,25.31342 -5.8803,2.86906 -10.5314,4.76347 -11.22267,4.57102 -0.35255,-0.0981 -0.43323,-0.0708 -0.2238,0.0759 0.63011,0.44134 -9.12911,3.55988 -14.61499,4.67019 -4.24071,0.85829 -8.18145,1.22051 -13.27849,1.22051 -2.81053,0 -5.11077,-0.0893 -5.11164,-0.19844 z M 84.132276,158.51652 c -0.632554,-6e-4 -1.281485,0.0155 -1.947685,0.047 -9.900328,0.46897 -24.247727,5.16871 -32.451766,10.63036 -4.896934,3.26002 -8.484374,7.50616 -9.915157,11.7352 -2.670181,7.89237 -0.669584,21.53114 5.149557,35.10431 3.735678,8.71348 7.303765,13.43539 13.857035,18.33945 6.885803,5.15291 12.930988,7.65283 21.476725,8.88112 0.436562,0.0628 2.103438,0.0823 3.704167,0.0434 3.654321,-0.0888 5.410883,-0.68864 6.970117,-2.38021 2.133392,-2.31446 2.713439,-4.01912 4.280359,-12.58166 1.307475,-7.14478 1.713743,-8.80016 3.59668,-14.66629 2.551912,-7.95027 5.086412,-16.85427 5.767092,-20.25871 0.94834,-4.74318 1.22253,-7.1992 1.38854,-12.43542 0.12684,-4.00101 0.0744,-4.97976 -0.38757,-7.20059 -1.21072,-5.82071 -4.44959,-9.91541 -10.105843,-12.777 -3.317263,-1.67825 -6.954375,-2.47678 -11.382251,-2.48099 z m 83.745844,24.46275 c -3.09002,-0.71088 -7.757,-2.91163 -7.60021,-3.58394 0.04,-0.17146 -0.0544,-0.23319 -0.20975,-0.13718 -0.44232,0.27337 -2.51637,-1.58544 -3.84228,-3.44354 -3.57178,-5.0054 -3.79736,-10.83833 -0.61118,-15.80356 0.44484,-0.69322 0.93307,-1.18164 1.08644,-1.08685 0.15879,0.0981 0.20065,0.0461 0.0974,-0.121 -0.3,-0.48542 2.48702,-3.49954 5.00915,-5.41733 4.51717,-3.4348 9.70106,-5.44311 15.59547,-6.04192 9.2232,-0.93697 17.30152,1.85216 19.97309,6.89593 1.65557,3.12564 1.30184,8.16166 -0.80929,11.52158 -0.45717,0.7276 -3.76543,4.24316 -7.35168,7.81235 -6.9353,6.9023 -8.25141,7.91991 -11.67983,9.03077 -2.20653,0.71495 -7.31647,0.91321 -9.65729,0.37469 z m 2.44189,-0.0475 c -0.0879,-0.0879 -0.31613,-0.0973 -0.50712,-0.0209 -0.21107,0.0845 -0.14837,0.14715 0.15985,0.15985 0.27892,0.0115 0.43519,-0.0511 0.34727,-0.13897 z m -8.48321,-2.83875 c 0,-0.19403 -0.15875,-0.35278 -0.35277,-0.35278 -0.44557,0 -0.46027,0.3535 -0.022,0.53033 0.1819,0.0734 0.34065,0.14285 0.35278,0.15434 0.0121,0.0115 0.022,-0.13787 0.022,-0.33189 z M 119.26693,139.0418 c -3.20883,-0.81555 -4.83508,-1.96021 -10.34162,-7.2791 -5.87985,-5.67949 -8.43846,-9.5342 -9.601467,-14.46526 -0.322226,-1.36621 -0.395234,-2.64558 -0.299387,-5.24639 0.108723,-2.9502 0.246075,-3.79722 0.965359,-5.95313 1.658145,-4.96996 5.065065,-9.31758 9.636705,-12.29752 5.83754,-3.805102 11.42469,-5.350187 20.2839,-5.609367 14.60241,-0.427199 22.76465,2.121067 26.97123,8.420466 1.57311,2.355756 2.1853,4.548191 2.17531,7.790441 -0.0114,3.70513 -1.04195,6.68317 -3.39746,9.81806 -1.69825,2.26016 -17.21926,17.99391 -19.51551,19.783 -5.26145,4.0994 -12.30229,6.2015 -16.87706,5.0388 z" /></g></svg>
